{"title":"The.Crossing.2.2015.BRRip.720p.x264.AAC-PRiSTiNE [P2PDL]","uid":13141236,"size":847166068,"categoryP":"video","categoryS":"hd___movies","magnet":"?xt=urn:btih:a26aeeaa6fcb318d0695fc33c4bef4e46147ca2e&amp;dn=The.Crossing.2.2015.BRRip.720p.x264.AAC-PRiSTiNE+%5BP2PDL%5D&amp;tr=udp%3A%2F%2Ftracker.leechers-paradise.org%3A6969&amp;tr=udp%3A%2F%2Fzer0day.ch%3A1337&amp;tr=udp%3A%2F%2Fopen.demonii.com%3A1337&amp;tr=udp%3A%2F%2Ftracker.coppersurfer.tk%3A6969&amp;tr=udp%3A%2F%2Fexodus.desync.com%3A6969","seeders":1,"leechers":0,"uploader":"VYTOP2PDL","files":7,"time":1451983840,"description":"____    ____ ____    ____ .___________.  ______   \r\n     /   /      /   / |           | /  __    \r\n    /   /      /   /  `---|  |----`|  |  |  | \r\n        /     _    _/       |  |     |  |  |  | \r\n       /        |  |         |  |     |  `--'  | \r\n    __/         |__|         |__|      ______/  \r\n                                                  \r\nPresenting Small Encodes with quality for years!\r\n                                                                                                   \r\n                                                                                                   \r\n\r\nThe.Crossing.2.2015.BRRip.720p.x264.AAC-PRiSTiNE\r\n\r\n\r\nGenre: Drama  \nhttp://www.imdb.com/title/tt4027270/\r\n\r\n\r\nFormat                                   : MPEG-4\r\nFile size                                : 797 MiB\r\nDuration                                 : 2h 5mn\r\nOverall bit rate                         : 886 Kbps\r\n\r\nVideo\r\nFormat                                   : AVC\r\nBit rate                                 : 851 Kbps\r\nWidth                                    : 1 280 pixels\r\nHeight                                   : 528 pixels\r\nDisplay aspect ratio                     : 2.40:1\r\nFrame rate mode                          : Constant\r\nFrame rate                               : 24.000 fps\r\nBit depth                                : 8 bits\r\nStream size                              : 765 MiB (96%)\r\nWriting library                          : x264\r\n\r\nAudio\r\nFormat                                   : AAC\r\nBit rate                                 : 32.0 Kbps\r\nChannel(s)                               : 2 channels\r\nChannel positions                        : Front: L R\r\nSampling rate                            : 48.0 KHz \r\nStream size                              : 28.8 MiB (4%)\r\nLanguage                                 : Chinese\r\n\r\nSubtitle                                 : Yes (English)\r\n\r\nScreen Shots: (Click to view)\r\n \nhttp://ititli.com/cO \nhttp://ititli.com/i9 \nhttp://ititli.com/iX \nhttp://ititli.com/iq \nhttp://ititli.com/ir \nhttp://ititli.com/i1 \nhttp://ititli.com/iT \nhttp://ititli.com/iW \nhttp://ititli.com/ig \nhttp://ititli.com/in \nhttp://ititli.com/iw \nhttp://ititli.com/i2 \nhttp://ititli.com/i6 \nhttp://ititli.com/i8 \nhttp://ititli.com/ie\r\n\r\n----------------------------------------------------------------------------------------------------\r\n\r\n\r\nEncoder Notes: Looking For Early Access To Anything You Can Provide WEBDL, DVDScr, DVDR, BluRay,\r\nDirect Audio, Music Releases and Seedboxes. If You Got anything to offer please contact us.\r\n\r\nSupport us by donating BC - 1FgwdzPsd1y25Gea8wP1qni35uGCtmkRCD\r\n\r\nSend some love!\r\nFind us and join us!","torrent":{"xt":"urn:btih:a26aeeaa6fcb318d0695fc33c4bef4e46147ca2e","amp;dn":"The.Crossing.2.2015.BRRip.720p.x264.AAC-PRiSTiNE+%5BP2PDL%5D","amp;tr":["udp%3A%2F%2Ftracker.leechers-paradise.org%3A6969","udp%3A%2F%2Fzer0day.ch%3A1337","udp%3A%2F%2Fopen.demonii.com%3A1337","udp%3A%2F%2Ftracker.coppersurfer.tk%3A6969","udp%3A%2F%2Fexodus.desync.com%3A6969"],"infoHash":"a26aeeaa6fcb318d0695fc33c4bef4e46147ca2e","infoHashBuffer":{"type":"Buffer","data":[162,106,238,170,111,203,49,141,6,149,252,51,196,190,244,228,97,71,202,46]},"announce":[],"urlList":[]}}